<svg version="1.1" id="Layer_1" xmlns="http://www.w3.org/2000/svg" xmlns:xlink="http://www.w3.org/1999/xlink" x="0px"
	y="0px" width="100%" fill="white" viewBox="0 0 2380 2380" enable-background="new 0 0 2380 2380"
	xml:space="preserve">

	<path opacity="1.000000" stroke="none" d="
M1036.539062,358.001221 
	C1036.539062,495.618011 1036.539062,632.234802 1036.539062,769.382935 
	C1138.303467,769.382935 1239.485229,769.382935 1341.538818,769.382935 
	C1341.538818,617.116150 1341.538818,464.953125 1341.538818,312.604065 
	C1348.606689,312.604065 1354.799438,312.604065 1361.395020,312.604065 
	C1361.395020,644.533142 1361.395020,975.955811 1361.395020,1307.821167 
	C1354.702881,1307.821167 1348.510620,1307.821167 1341.740234,1307.821167 
	C1341.740234,1187.814453 1341.740234,1068.216309 1341.740234,948.115173 
	C1239.966309,948.115173 1138.769043,948.115173 1036.811279,948.115173 
	C1036.811279,1067.887085 1036.811279,1187.379639 1036.811279,1307.567139 
	C1030.971924,1307.567139 1025.857422,1307.567139 1020.026733,1307.567139 
	C1020.026733,976.058472 1020.026733,644.379822 1020.026733,312.399292 
	C1025.270752,312.399292 1030.214600,312.399292 1036.539185,312.399292 
	C1036.539185,327.338806 1036.539185,342.170013 1036.539062,358.001221 
M1105.000244,787.457031 
	C1082.456909,787.457031 1059.913452,787.457031 1037.077271,787.457031 
	C1037.077271,808.737305 1037.077271,828.877686 1037.077271,849.328674 
	C1138.691284,849.328674 1239.751343,849.328674 1341.162598,849.328674 
	C1341.162598,828.603027 1341.162598,808.463867 1341.162598,787.457031 
	C1262.761230,787.457031 1184.880859,787.457031 1105.000244,787.457031 
M1289.000000,929.873779 
	C1306.233276,929.873779 1323.466553,929.873779 1341.183716,929.873779 
	C1341.183716,908.714233 1341.183716,888.560852 1341.183716,867.815674 
	C1239.716797,867.815674 1138.613647,867.815674 1037.579346,867.815674 
	C1035.735474,879.289551 1036.149292,922.665039 1038.211426,929.873779 
	C1121.062134,929.873779 1204.031128,929.873779 1289.000000,929.873779 
z" />
	<path opacity="1.000000" stroke="none" d="
M1248.222656,1967.566040 
	C1264.856567,2000.205688 1281.181641,2032.167114 1298.023315,2065.139893 
	C1291.191284,2065.139893 1285.465942,2065.139893 1278.565918,2065.139893 
	C1236.281860,1981.561035 1193.653931,1897.302490 1150.761108,1812.520508 
	C1134.120850,1812.520508 1117.275146,1812.520508 1099.276611,1812.520508 
	C1099.276611,1896.806030 1099.276611,1980.900635 1099.276611,2065.405029 
	C1093.567749,2065.405029 1089.001587,2065.405029 1083.698975,2065.405029 
	C1083.698975,1895.852661 1083.698975,1726.402588 1083.698975,1556.140381 
	C1086.221802,1556.010986 1089.108521,1555.736694 1091.995361,1555.734131 
	C1125.652222,1555.704224 1159.313354,1556.043335 1192.964844,1555.618408 
	C1223.542236,1555.232300 1247.633301,1567.747437 1266.921631,1590.712769 
	C1286.098145,1613.544800 1294.724609,1640.364258 1296.573608,1669.710693 
	C1298.163330,1694.945923 1295.660889,1719.626709 1286.179199,1743.278198 
	C1276.233643,1768.087402 1261.093628,1788.665405 1237.247681,1801.851685 
	C1225.094360,1808.572266 1212.071411,1812.185425 1198.063965,1811.986084 
	C1188.877197,1811.855225 1179.687134,1811.961182 1168.830811,1811.961182 
	C1195.693848,1864.586914 1221.803833,1915.737305 1248.222656,1967.566040 
M1190.925537,1794.818481 
	C1218.917969,1796.347290 1240.613037,1784.823242 1256.847900,1762.533203 
	C1260.935669,1756.920532 1264.479126,1750.794189 1267.471802,1744.521729 
	C1280.216309,1717.809692 1282.098511,1689.460815 1278.806519,1660.605957 
	C1276.547485,1640.804077 1269.676514,1622.540283 1258.048828,1606.195923 
	C1242.279785,1584.030151 1221.020630,1572.485229 1193.606689,1572.570190 
	C1165.309082,1572.657837 1137.011108,1572.577271 1108.713257,1572.609863 
	C1105.839111,1572.613159 1102.965088,1572.886597 1099.770142,1573.051270 
	C1099.770142,1647.159058 1099.770142,1720.544556 1099.770142,1794.818604 
	C1129.854004,1794.818604 1159.400269,1794.818604 1190.925537,1794.818481 
z" />
	<path opacity="1.000000" stroke="none" d="
M1618.547607,1722.001221 
	C1618.547119,1805.986206 1618.666382,1888.971191 1618.499512,1971.955688 
	C1618.406616,2018.191040 1589.773315,2057.088623 1545.184082,2068.594971 
	C1498.253540,2080.705322 1453.872925,2068.375977 1424.879639,2030.996094 
	C1411.707764,2014.014038 1406.028076,1994.521606 1406.007812,1973.229614 
	C1405.977051,1940.902222 1405.999634,1908.574707 1405.999634,1876.247314 
	C1405.999634,1802.260864 1406.620728,1728.267456 1405.793823,1654.290283 
	C1405.183960,1599.727173 1447.231567,1551.382568 1508.314941,1549.860107 
	C1550.568115,1548.807007 1583.076416,1565.868164 1605.747070,1601.434326 
	C1613.391968,1613.427490 1617.875610,1626.750366 1618.108521,1641.025757 
	C1618.543457,1667.679565 1618.431763,1694.342285 1618.547607,1722.001221 
M1422.483887,1920.999756 
	C1422.484253,1938.321289 1422.392944,1955.643555 1422.504883,1972.964355 
	C1422.710693,2004.774780 1437.459229,2028.081177 1464.398926,2044.228638 
	C1482.594482,2055.135010 1502.502686,2057.790283 1523.128052,2055.955811 
	C1568.767212,2051.896973 1602.133057,2014.701416 1601.867798,1971.895996 
	C1601.203125,1864.640381 1601.433960,1757.377075 1601.774902,1650.118408 
	C1601.882446,1616.294922 1579.686890,1584.479370 1547.467773,1572.506348 
	C1534.051270,1567.520508 1520.196533,1567.085083 1506.144653,1567.143066 
	C1461.620972,1567.326904 1421.972778,1603.961792 1422.307617,1652.183716 
	C1422.925049,1741.118408 1422.483887,1830.060547 1422.483887,1920.999756 
z" />
	<path opacity="1.000000" stroke="none" d="
M781.480835,1784.000366 
	C781.480835,1846.307495 782.722656,1907.647095 781.108948,1968.911621 
	C779.679810,2023.166870 826.231812,2056.837402 868.019653,2056.334717 
	C883.229553,2056.151855 897.949097,2054.563232 911.705688,2047.864624 
	C942.993591,2032.630005 960.065491,2007.961914 960.145081,1972.698242 
	C960.299316,1904.394653 960.190613,1836.090454 960.190735,1767.786499 
	C960.190796,1701.148438 960.190735,1634.510498 960.190735,1567.872437 
	C960.190735,1564.294067 960.190735,1560.715698 960.190735,1556.749023 
	C966.334534,1556.749023 971.455750,1556.749023 977.538025,1556.749023 
	C977.538025,1560.527222 977.538025,1563.781982 977.538025,1567.036743 
	C977.537842,1701.978760 977.564148,1836.920654 977.524597,1971.862671 
	C977.508545,2026.594971 933.956909,2071.170898 879.236511,2072.386719 
	C869.596191,2072.600830 859.703308,2073.165283 850.326355,2071.421387 
	C815.423584,2064.929199 789.521057,2045.813843 773.381653,2013.885376 
	C766.579956,2000.429443 764.706177,1985.931519 764.694458,1971.207031 
	C764.586182,1835.265503 764.629333,1699.323853 764.643372,1563.382324 
	C764.643555,1561.430298 764.834534,1559.478271 764.970215,1556.880371 
	C770.178894,1556.880371 774.998474,1556.880371 780.079407,1556.880371 
	C780.085327,1556.885986 780.332275,1557.092529 780.542969,1557.331055 
	C780.762695,1557.580078 781.122437,1557.859619 781.122925,1558.126465 
	C781.259277,1633.084351 781.369690,1708.042358 781.480835,1784.000366 
z" />
	<path opacity="1.000000" stroke="none" d="
M447.675598,1855.999756 
	C447.675598,1755.704224 447.675598,1656.408691 447.675598,1556.424316 
	C452.873047,1556.424316 457.695374,1556.424316 463.499634,1556.424316 
	C463.499634,1647.594971 463.499634,1739.071655 463.499634,1831.187012 
	C523.237732,1831.187012 582.008179,1831.187012 641.794861,1831.187012 
	C641.794861,1739.518555 641.794861,1648.065918 641.794861,1556.177490 
	C648.012024,1556.177490 653.228760,1556.177490 659.078247,1556.177490 
	C659.078247,1725.699463 659.078247,1895.154175 659.078247,2065.208008 
	C653.729248,2065.208008 648.551880,2065.208008 642.127075,2065.208008 
	C642.127075,1993.265259 642.127075,1921.189575 642.127075,1848.629639 
	C582.373169,1848.629639 523.852417,1848.629639 464.109192,1848.629639 
	C464.109192,1920.701538 464.109192,1992.775513 464.109192,2065.321777 
	C458.358002,2065.321777 453.804626,2065.321777 449.091980,2065.321777 
	C449.001984,2065.230713 448.748260,2065.009277 448.539154,2064.751709 
	C448.338593,2064.504883 448.031403,2064.220459 448.030914,2063.952393 
	C447.897552,1994.968262 447.786896,1925.984009 447.675598,1855.999756 
z" />
	<path opacity="1.000000" stroke="none" d="
M908.752380,539.999512 
	C908.752380,463.736786 908.752380,388.474121 908.752380,312.639099 
	C914.765869,312.639099 919.941345,312.639099 925.769165,312.639099 
	C925.769165,643.994263 925.769165,975.442261 925.769165,1307.598755 
	C920.712830,1307.598755 915.295288,1307.598755 908.752380,1307.598755 
	C908.752380,1052.014282 908.752380,796.506897 908.752380,539.999512 
z" />
	<path opacity="1.000000" stroke="none" d="
M1452.988037,591.999390 
	C1452.988037,498.388153 1452.988037,405.777008 1452.988037,312.640015 
	C1458.694336,312.640015 1463.572388,312.640015 1468.521729,312.640015 
	C1470.642212,320.033295 1471.701416,1276.451782 1469.505981,1307.506104 
	C1464.478638,1307.506104 1459.362793,1307.506104 1452.987915,1307.506104 
	C1452.987915,1069.419434 1452.987915,831.209412 1452.988037,591.999390 
z" />
	<path opacity="1.000000" stroke="none" d="
M1915.469238,1641.558350 
	C1912.350342,1630.561401 1910.605225,1619.777832 1905.995117,1610.402832 
	C1892.207397,1582.364380 1869.014404,1567.802368 1837.738770,1565.887573 
	C1809.536743,1564.161011 1785.430908,1572.664917 1765.320557,1592.846069 
	C1744.894531,1613.343750 1738.104248,1638.632202 1741.253418,1666.138550 
	C1746.182129,1709.188110 1767.322388,1743.920166 1800.844238,1771.038574 
	C1810.657959,1778.977539 1821.268311,1785.944946 1831.636230,1793.181763 
	C1839.549316,1798.705078 1847.817017,1803.726929 1855.649170,1809.358276 
	C1890.822632,1834.648438 1914.900757,1868.557007 1929.996460,1908.660278 
	C1940.774292,1937.292358 1942.816528,1966.883423 1934.806274,1996.945435 
	C1923.520752,2039.300171 1881.812134,2069.466553 1839.797607,2071.624268 
	C1821.929443,2072.541748 1804.419922,2070.746582 1788.167480,2062.844971 
	C1750.672241,2044.615601 1732.465820,2013.956665 1731.199219,1972.719971 
	C1731.181030,1972.125000 1731.646362,1971.515137 1732.076538,1970.433105 
	C1736.728516,1970.433105 1741.579468,1970.433105 1747.028809,1970.433105 
	C1747.289551,1972.735962 1747.652222,1974.947266 1747.775269,1977.172119 
	C1750.413818,2024.862671 1791.998779,2060.045654 1839.612549,2054.981445 
	C1851.318359,2053.736328 1862.454956,2050.871094 1873.039673,2045.616455 
	C1905.076660,2029.711548 1921.524902,2003.595093 1922.085327,1968.217651 
	C1922.938110,1914.378540 1902.818359,1869.554688 1861.128052,1835.125488 
	C1848.840332,1824.977783 1835.653809,1815.830566 1822.355469,1807.014771 
	C1802.580566,1793.905151 1783.013428,1780.472534 1767.437012,1762.450806 
	C1739.777100,1730.448486 1723.304810,1693.779785 1724.201538,1650.620361 
	C1725.452637,1590.395142 1773.031250,1555.394043 1816.111084,1549.703247 
	C1851.960449,1544.967529 1882.756836,1555.208130 1907.475586,1581.669312 
	C1925.340576,1600.793823 1932.620850,1624.122314 1932.413086,1650.717407 
	C1926.757202,1650.717407 1921.909058,1650.717407 1916.155518,1650.717407 
	C1915.958374,1648.087280 1915.745850,1645.251343 1915.469238,1641.558350 
z" />
</svg>